sfk_cyclingleg_states
version=1
nRows=4
nColumns=53
inDegrees=yes

# SIMM Motion File Header:
name sfk_cyclingleg_states
datacolumns 53
datarows 4
otherdata 1
range 0.42343248 0.42438119
endheader
time	/jointset/bb/crank_angle/value	/jointset/bb/crank_angle/speed	/jointset/spindle/pedal_angle_r/value	/jointset/spindle/pedal_angle_r/speed	/jointset/ground_pelvis/pelvis_tilt/value	/jointset/ground_pelvis/pelvis_tilt/speed	/jointset/ground_pelvis/pelvis_list/value	/jointset/ground_pelvis/pelvis_list/speed	/jointset/ground_pelvis/pelvis_rotation/value	/jointset/ground_pelvis/pelvis_rotation/speed	/jointset/ground_pelvis/pelvis_tx/value	/jointset/ground_pelvis/pelvis_tx/speed	/jointset/ground_pelvis/pelvis_ty/value	/jointset/ground_pelvis/pelvis_ty/speed	/jointset/ground_pelvis/pelvis_tz/value	/jointset/ground_pelvis/pelvis_tz/speed	/jointset/hip_r/hip_angle_r/value	/jointset/hip_r/hip_angle_r/speed	/jointset/hip_r/hip_adduction_r/value	/jointset/hip_r/hip_adduction_r/speed	/jointset/hip_r/hip_rotation_r/value	/jointset/hip_r/hip_rotation_r/speed	/jointset/knee_r/knee_angle_r/value	/jointset/knee_r/knee_angle_r/speed	/jointset/knee_r/tib_tx_r/value	/jointset/knee_r/tib_tx_r/speed	/jointset/knee_r/tib_ty_r/value	/jointset/knee_r/tib_ty_r/speed	/jointset/tib_pat_r/pat_angle_r/value	/jointset/tib_pat_r/pat_angle_r/speed	/jointset/tib_pat_r/pat_tx_r/value	/jointset/tib_pat_r/pat_tx_r/speed	/jointset/tib_pat_r/pat_ty_r/value	/jointset/tib_pat_r/pat_ty_r/speed	/jointset/ankle_r/ankle_angle_r/value	/jointset/ankle_r/ankle_angle_r/speed	/jointset/subtalar_r/subtalar_angle_r/value	/jointset/subtalar_r/subtalar_angle_r/speed	/jointset/mtp_r/mtp_angle_r/value	/jointset/mtp_r/mtp_angle_r/speed	/forceset/bifemlh_r/activation	/forceset/bifemlh_r/fiber_length	/forceset/bifemsh_r/activation	/forceset/bifemsh_r/fiber_length	/forceset/glut_max2_r/activation	/forceset/glut_max2_r/fiber_length	/forceset/vas_int_r/activation	/forceset/vas_int_r/fiber_length	/forceset/med_gas_r/activation	/forceset/med_gas_r/fiber_length	/forceset/tib_ant_r/activation	/forceset/tib_ant_r/fiber_length
      0.42343248	   -213.44117209	   -480.13863232	    208.59866830	    286.24838819	      0.00000000	      0.00000000	     -0.00000000	     -0.00000000	     -0.00000000	     -0.00000000	      0.00000000	      0.00000000	     -0.00000000	     -0.00000000	      0.00000000	      0.00000000	     45.13960445	     82.88231481	      4.37366488	     -0.60829216	     -0.12935149	    -21.11009146	    -71.18669774	   -276.03988447	      0.00514661	     -0.00202726	     -0.47952706	     -0.09101109	     17.52629577	      1.30228419	      0.03936020	     -0.08898910	     -0.02256586	      0.00640210	     21.65111107	      0.07419086	     -0.00000000	     -0.00000000	     -0.00000000	     -0.00000000	     -0.02907481	      0.11693886	     -0.02907481	      0.16034083	     -0.02907481	      0.13411675	     -0.02907481	      0.13687839	     -0.02907481	      0.14191572	     -0.02907481	      0.11689358
      0.42351302	   -213.47984031	   -480.13863232	    208.62172354	    286.29987799	      0.00000000	      0.00000000	     -0.00000000	     -0.00000000	     -0.00000000	     -0.00000000	      0.00000000	      0.00000000	     -0.00000000	     -0.00000000	      0.00000000	      0.00000000	     45.14628139	     82.93108851	      4.37361583	     -0.60967684	     -0.13105165	    -21.11113851	    -71.20893000	   -276.07072282	      0.00514644	     -0.00206826	     -0.47953439	     -0.09103153	     17.52640044	      1.29717114	      0.03935303	     -0.08901539	     -0.02256535	      0.00638853	     21.65111842	      0.10843144	     -0.00000000	     -0.00000000	     -0.00000000	     -0.00000000	     -0.02908518	      0.11693469	     -0.02908518	      0.16032941	     -0.02908518	      0.13412149	     -0.02908518	      0.13689287	     -0.02908518	      0.14191732	     -0.02908518	      0.11689371
      0.42387264	   -213.65250727	   -480.13863232	    208.72472387	    286.53074645	      0.00000000	      0.00000000	     -0.00000000	     -0.00000000	     -0.00000000	     -0.00000000	      0.00000000	      0.00000000	     -0.00000000	     -0.00000000	      0.00000000	      0.00000000	     45.17614410	     83.14856852	      4.37339547	     -0.61586233	     -0.13864445	    -21.11577831	    -71.30823487	   -276.20722624	      0.00514567	     -0.00225147	     -0.47956715	     -0.09112235	     17.52686284	      1.27447635	      0.03932100	     -0.08913253	     -0.02256306	      0.00632752	     21.65118492	      0.26138616	     -0.00000000	     -0.00000000	     -0.00000000	     -0.00000000	     -0.02913148	      0.11691612	     -0.02913148	      0.16027845	     -0.02913148	      0.13414271	     -0.02913148	      0.13695768	     -0.02913148	      0.14190507	     -0.02913148	      0.11689424
      0.42438119	   -213.89668062	   -480.13863232	    208.87052195	    286.85986237	      0.00000000	      0.00000000	     -0.00000000	     -0.00000000	     -0.00000000	     -0.00000000	      0.00000000	      0.00000000	     -0.00000000	     -0.00000000	      0.00000000	      0.00000000	     45.21850713	     83.45525302	      4.37308005	     -0.62461601	     -0.14938448	    -21.12224153	    -71.44874779	   -276.39692459	      0.00514445	     -0.00251097	     -0.47961352	     -0.09124941	     17.52750289	      1.24276665	      0.03927562	     -0.08929757	     -0.02255987	      0.00624007	     21.65137287	      0.47784439	     -0.00000000	     -0.00000000	     -0.00000000	     -0.00000000	     -0.02919696	      0.11689008	     -0.02919696	      0.16020643	     -0.02919696	      0.13417280	     -0.02919696	      0.13704994	     -0.02919696	      0.14179833	     -0.02919696	      0.11689493
